<?xml version="1.0" encoding="UTF-8" standalone="no"?>
<!-- Created with Inkscape (http://www.inkscape.org/) -->

<svg
   xmlns:dc="http://purl.org/dc/elements/1.1/"
   xmlns:cc="http://creativecommons.org/ns#"
   xmlns:rdf="http://www.w3.org/1999/02/22-rdf-syntax-ns#"
   xmlns:svg="http://www.w3.org/2000/svg"
   xmlns="http://www.w3.org/2000/svg"
   xmlns:sodipodi="http://sodipodi.sourceforge.net/DTD/sodipodi-0.dtd"
   xmlns:inkscape="http://www.inkscape.org/namespaces/inkscape"
   width="132.60669mm"
   height="93.04158mm"
   viewBox="0 0 132.60669 93.04158"
   version="1.1"
   id="svg1082"
   inkscape:version="0.92.3 (2405546, 2018-03-11)"
   sodipodi:docname="book.svg">
  <defs
     id="defs1076" />
  <sodipodi:namedview
     id="base"
     pagecolor="#ffffff"
     bordercolor="#666666"
     borderopacity="1.0"
     inkscape:pageopacity="0.0"
     inkscape:pageshadow="2"
     inkscape:zoom="2"
     inkscape:cx="138.46475"
     inkscape:cy="158.00874"
     inkscape:document-units="mm"
     inkscape:current-layer="layer1"
     showgrid="false"
     fit-margin-top="0"
     fit-margin-left="0"
     fit-margin-right="0"
     fit-margin-bottom="0"
     inkscape:window-width="3440"
     inkscape:window-height="1387"
     inkscape:window-x="2560"
     inkscape:window-y="27"
     inkscape:window-maximized="1"
     showguides="false"
     inkscape:guide-bbox="true">
    <sodipodi:guide
       position="66.882121,48.414213"
       orientation="1,0"
       id="guide865"
       inkscape:locked="false"
       inkscape:label=""
       inkscape:color="rgb(0,0,255)" />
  </sodipodi:namedview>
  <metadata
     id="metadata1079">
    <rdf:RDF>
      <cc:Work
         rdf:about="">
        <dc:format>image/svg+xml</dc:format>
        <dc:type
           rdf:resource="http://purl.org/dc/dcmitype/StillImage" />
        <dc:title></dc:title>
      </cc:Work>
    </rdf:RDF>
  </metadata>
  <g
     inkscape:label="Layer 1"
     inkscape:groupmode="layer"
     id="layer1"
     transform="translate(-27.115047,-119.89616)">
    <path
       style="fill:#141414;fill-opacity:1;stroke:none;stroke-width:0.26458332px;stroke-linecap:butt;stroke-linejoin:miter;stroke-opacity:1"
       d="m 60.144681,150.45454 -1.18118,0.46066 c 0,0 -0.0935,0.0186 -0.12693,-0.0232 -0.0334,-0.0418 -10.92464,4.60205 -10.92464,4.60205 0,0 -0.275622,0.17539 -0.442666,-0.0919 -0.167043,-0.26728 -6.194242,-10.72875 -6.194242,-10.72875 0,0 -0.0764,-0.13659 0.100777,-0.21927 0.177177,-0.0827 19.583891,-6.90988 19.583891,-6.90988 0,0 0.33073,-0.0945 0.46066,0.11812 0,0 6.7327,9.21321 6.79176,9.33133 0.0591,0.11811 -0.24805,0.18899 -0.24805,0.18899 0,0 -7.71898,2.96475 -7.68945,3.10058 0.0295,0.13584 -0.12993,0.17127 -0.12993,0.17127 z"
       id="path1460"
       inkscape:connector-curvature="0"
       sodipodi:nodetypes="ccccccccccccc" />
    <path
       style="fill:#e8e8e8;fill-opacity:1;stroke:none;stroke-width:0.23972949px;stroke-linecap:butt;stroke-linejoin:miter;stroke-opacity:1"
       d="m 51.735481,139.22787 7.61998,11.08749 c 0,0 -8.30492,-1.24146 -11.601207,5.00864 l -6.093125,-10.5536 c 0,0 2.539995,-6.784 10.074352,-5.54253 z"
       id="path1439"
       inkscape:connector-curvature="0" />
    <path
       style="fill:#e8e8e8;fill-opacity:1;stroke:none;stroke-width:0.23972949px;stroke-linecap:butt;stroke-linejoin:miter;stroke-opacity:1"
       d="m 67.964061,147.18269 -6.78805,-9.20091 c 0,0 -5.28964,-3.74354 -9.44053,1.24609 l 7.61998,11.08749 c 2.99244,-4.46651 8.6086,-3.13267 8.6086,-3.13267 z"
       id="path1458"
       inkscape:connector-curvature="0"
       sodipodi:nodetypes="ccccc" />
    <path
       style="fill:none;stroke:#e8e8e8;stroke-width:0.065;stroke-linecap:butt;stroke-linejoin:miter;stroke-miterlimit:4;stroke-dasharray:none;stroke-opacity:1"
       d="m 59.355461,150.31536 c 0,0 -8.24767,-1.00455 -11.601207,5.00864"
       id="path1462"
       inkscape:connector-curvature="0"
       sodipodi:nodetypes="cc" />
    <path
       style="fill:none;stroke:#e8e8e8;stroke-width:0.065;stroke-linecap:butt;stroke-linejoin:miter;stroke-miterlimit:4;stroke-dasharray:none;stroke-opacity:1"
       d="m 47.754254,155.324 c 0,0 2.606967,-5.32637 11.601207,-5.00864"
       id="path1464"
       inkscape:connector-curvature="0" />
    <path
       style="fill:none;stroke:#e8e8e8;stroke-width:0.065;stroke-linecap:butt;stroke-linejoin:miter;stroke-miterlimit:4;stroke-dasharray:none;stroke-opacity:1"
       d="m 47.754254,155.324 c 0,0 2.865887,-5.0591 11.601207,-5.00864"
       id="path1464-6"
       inkscape:connector-curvature="0"
       sodipodi:nodetypes="cc" />
    <path
       style="fill:none;stroke:#e8e8e8;stroke-width:0.065;stroke-linecap:butt;stroke-linejoin:miter;stroke-miterlimit:4;stroke-dasharray:none;stroke-opacity:1"
       d="m 47.754254,155.324 c 0,0 3.158217,-4.75007 11.601207,-5.00864"
       id="path1464-6-7"
       inkscape:connector-curvature="0"
       sodipodi:nodetypes="cc" />
    <path
       style="fill:none;stroke:#e8e8e8;stroke-width:0.065;stroke-linecap:butt;stroke-linejoin:miter;stroke-miterlimit:4;stroke-dasharray:none;stroke-opacity:1"
       d="m 47.754254,155.324 c 0,0 3.433837,-4.47445 11.601207,-5.00864"
       id="path1464-6-7-5"
       inkscape:connector-curvature="0"
       sodipodi:nodetypes="cc" />
    <path
       style="fill:none;stroke:#e8e8e8;stroke-width:0.065;stroke-linecap:butt;stroke-linejoin:miter;stroke-miterlimit:4;stroke-dasharray:none;stroke-opacity:1"
       d="m 47.754254,155.324 c 0,0 3.642637,-4.13201 11.601207,-5.00864"
       id="path1464-6-7-5-3"
       inkscape:connector-curvature="0"
       sodipodi:nodetypes="cc" />
    <path
       style="fill:none;stroke:#e8e8e8;stroke-width:0.065;stroke-linecap:butt;stroke-linejoin:miter;stroke-miterlimit:4;stroke-dasharray:none;stroke-opacity:1"
       d="m 59.355461,150.31536 c 0,0 2.52678,-4.05237 8.6086,-3.13267"
       id="path1526"
       inkscape:connector-curvature="0" />
    <path
       style="fill:none;stroke:#e8e8e8;stroke-width:0.065;stroke-linecap:butt;stroke-linejoin:miter;stroke-miterlimit:4;stroke-dasharray:none;stroke-opacity:1"
       d="m 59.355461,150.31536 c 0,0 2.69382,-3.71828 8.6086,-3.13267"
       id="path1526-5"
       inkscape:connector-curvature="0"
       sodipodi:nodetypes="cc" />
    <path
       style="fill:none;stroke:#e8e8e8;stroke-width:0.065;stroke-linecap:butt;stroke-linejoin:miter;stroke-miterlimit:4;stroke-dasharray:none;stroke-opacity:1"
       d="m 59.355461,150.31536 c 0,0 2.91933,-3.50948 8.6086,-3.13267"
       id="path1526-5-6"
       inkscape:connector-curvature="0"
       sodipodi:nodetypes="cc" />
    <path
       style="fill:none;stroke:#e8e8e8;stroke-width:0.065;stroke-linecap:butt;stroke-linejoin:miter;stroke-miterlimit:4;stroke-dasharray:none;stroke-opacity:1"
       d="m 59.355461,150.31536 c 0,0 3.1866,-3.23386 8.6086,-3.13267"
       id="path1526-5-6-2"
       inkscape:connector-curvature="0"
       sodipodi:nodetypes="cc" />
    <path
       style="fill:none;stroke:#e8e8e8;stroke-width:0.065;stroke-linecap:butt;stroke-linejoin:miter;stroke-miterlimit:4;stroke-dasharray:none;stroke-opacity:1"
       d="m 59.355461,150.31536 c 0,0 3.362,-2.92483 8.6086,-3.13267"
       id="path1526-5-6-2-9"
       inkscape:connector-curvature="0"
       sodipodi:nodetypes="cc" />
    <path
       style="fill:none;stroke:#000000;stroke-width:0.065;stroke-linecap:round;stroke-linejoin:miter;stroke-miterlimit:4;stroke-dasharray:none;stroke-opacity:1"
       d="m 43.017635,144.93845 c 0,0 3.63802,-5.64602 8.787946,-4.4176"
       id="path1588"
       inkscape:connector-curvature="0" />
    <path
       style="fill:none;stroke:#000000;stroke-width:0.065;stroke-linecap:round;stroke-linejoin:miter;stroke-miterlimit:4;stroke-dasharray:none;stroke-opacity:1"
       d="m 43.298947,145.43475 c 0,0 3.63802,-5.64602 8.787944,-4.4176"
       id="path1588-1"
       inkscape:connector-curvature="0" />
    <path
       style="fill:none;stroke:#000000;stroke-width:0.065;stroke-linecap:round;stroke-linejoin:miter;stroke-miterlimit:4;stroke-dasharray:none;stroke-opacity:1"
       d="m 47.860355,153.4947 c 0,0 1.792039,-4.49036 8.787946,-4.4176 0,0 0.52619,-0.0476 0.67653,-0.0977"
       id="path1588-2"
       inkscape:connector-curvature="0"
       sodipodi:nodetypes="cc" />
    <path
       style="fill:none;stroke:#000000;stroke-width:0.065;stroke-linecap:round;stroke-linejoin:miter;stroke-miterlimit:4;stroke-dasharray:none;stroke-opacity:1"
       d="m 47.585321,153.09269 c 0,0 1.792036,-4.49036 8.78795,-4.4176 0,0 0.60077,-0.0298 0.7344,-0.0799"
       id="path1588-2-7"
       inkscape:connector-curvature="0"
       sodipodi:nodetypes="cc" />
    <path
       style="fill:none;stroke:#000000;stroke-width:0.065;stroke-linecap:round;stroke-linejoin:miter;stroke-miterlimit:4;stroke-dasharray:none;stroke-opacity:1"
       d="m 47.284641,152.67507 c 0,0 1.792036,-4.49036 8.78795,-4.4176 0,0 0.65088,-0.0298 0.76781,-0.0799"
       id="path1588-2-7-0"
       inkscape:connector-curvature="0"
       sodipodi:nodetypes="cc" />
    <path
       style="fill:none;stroke:#000000;stroke-width:0.065;stroke-linecap:round;stroke-linejoin:miter;stroke-miterlimit:4;stroke-dasharray:none;stroke-opacity:1"
       d="m 47.000667,152.20736 c 0,0 1.792036,-4.49036 8.787954,-4.4176 0,0 0.58406,-0.0131 0.76781,-0.0298"
       id="path1588-2-7-9"
       inkscape:connector-curvature="0"
       sodipodi:nodetypes="cc" />
    <path
       style="fill:none;stroke:#000000;stroke-width:0.065;stroke-linecap:round;stroke-linejoin:miter;stroke-miterlimit:4;stroke-dasharray:none;stroke-opacity:1"
       d="m 46.733398,151.80645 c 0,0 1.792036,-4.49036 8.787943,-4.4176 0,0 0.83464,0.0203 0.91816,0.004"
       id="path1588-2-7-3"
       inkscape:connector-curvature="0"
       sodipodi:nodetypes="cc" />
    <path
       style="fill:none;stroke:#000000;stroke-width:0.065;stroke-linecap:round;stroke-linejoin:miter;stroke-miterlimit:4;stroke-dasharray:none;stroke-opacity:1"
       d="m 43.609733,145.94669 c 0,0 3.63802,-5.64602 8.787948,-4.4176"
       id="path1588-1-0"
       inkscape:connector-curvature="0" />
    <path
       style="fill:none;stroke:#000000;stroke-width:0.065;stroke-linecap:round;stroke-linejoin:miter;stroke-miterlimit:4;stroke-dasharray:none;stroke-opacity:1"
       d="m 44.694804,147.84868 c 0,0 3.189173,-5.50428 8.787947,-4.4176 l 0.38398,0.0722"
       id="path1588-1-0-6"
       inkscape:connector-curvature="0"
       sodipodi:nodetypes="cc" />
    <path
       style="fill:none;stroke:#000000;stroke-width:0.065;stroke-linecap:round;stroke-linejoin:miter;stroke-miterlimit:4;stroke-dasharray:none;stroke-opacity:1"
       d="m 44.919217,148.24571 c 0,0 3.189173,-5.50428 8.787944,-4.4176 l 0.44305,0.0886"
       id="path1588-1-0-6-2"
       inkscape:connector-curvature="0"
       sodipodi:nodetypes="cc" />
    <path
       style="fill:none;stroke:#000000;stroke-width:0.065;stroke-linecap:round;stroke-linejoin:miter;stroke-miterlimit:4;stroke-dasharray:none;stroke-opacity:1"
       d="m 45.155451,148.65912 c 0,0 3.189173,-5.50428 8.78795,-4.4176 l 0.50801,0.0945"
       id="path1588-1-0-6-6"
       inkscape:connector-curvature="0"
       sodipodi:nodetypes="cc" />
    <path
       style="fill:none;stroke:#000000;stroke-width:0.065;stroke-linecap:round;stroke-linejoin:miter;stroke-miterlimit:4;stroke-dasharray:none;stroke-opacity:1"
       d="m 44.458558,147.48976 c 0,0 3.189173,-5.50428 8.787943,-4.4176 l 0.36628,0.0768"
       id="path1588-1-0-6-1"
       inkscape:connector-curvature="0"
       sodipodi:nodetypes="cc" />
    <path
       style="fill:none;stroke:#000000;stroke-width:0.065;stroke-linecap:round;stroke-linejoin:miter;stroke-miterlimit:4;stroke-dasharray:none;stroke-opacity:1"
       d="m 45.427122,149.13159 c 0,0 3.189173,-5.50428 8.787949,-4.4176 l 0.56707,0.11816"
       id="path1588-1-0-6-8"
       inkscape:connector-curvature="0"
       sodipodi:nodetypes="cc" />
    <path
       style="fill:none;stroke:#000000;stroke-width:0.065;stroke-linecap:round;stroke-linejoin:miter;stroke-miterlimit:4;stroke-dasharray:none;stroke-opacity:1"
       d="m 45.686981,149.60407 c 0,0 3.189173,-5.50428 8.78794,-4.4176 l 0.52574,0.0886"
       id="path1588-1-0-6-7"
       inkscape:connector-curvature="0"
       sodipodi:nodetypes="cc" />
    <path
       style="fill:none;stroke:#000000;stroke-width:0.065;stroke-linecap:round;stroke-linejoin:miter;stroke-miterlimit:4;stroke-dasharray:none;stroke-opacity:1"
       d="m 59.355461,150.31536 -7.61998,-11.08749"
       id="path1728"
       inkscape:connector-curvature="0" />
    <path
       style="fill:#414141;fill-opacity:1;stroke:none;stroke-width:0.26458332px;stroke-linecap:butt;stroke-linejoin:miter;stroke-opacity:1"
       d="m 60.799561,138.45127 c -5.57598,-2.13921 -7.73012,1.66799 -7.73012,1.66799 l 2.50312,3.72715 c 0,0 2.35739,-3.33658 7.38332,-2.52236 z"
       id="path1745"
       inkscape:connector-curvature="0"
       sodipodi:nodetypes="ccccc" />
    <path
       style="fill:none;stroke:#000000;stroke-width:0.065;stroke-linecap:round;stroke-linejoin:miter;stroke-miterlimit:4;stroke-dasharray:none;stroke-opacity:1"
       d="m 58.844921,148.46153 c 0,0 2.07134,-3.4411 7.38332,-2.52236"
       id="path1747"
       inkscape:connector-curvature="0" />
    <path
       style="fill:none;stroke:#000000;stroke-width:0.065;stroke-linecap:round;stroke-linejoin:miter;stroke-miterlimit:4;stroke-dasharray:none;stroke-opacity:1"
       d="m 58.527441,147.94624 c 0,0 2.07134,-3.4411 7.38332,-2.52236"
       id="path1747-2"
       inkscape:connector-curvature="0" />
    <path
       style="fill:none;stroke:#000000;stroke-width:0.065;stroke-linecap:round;stroke-linejoin:miter;stroke-miterlimit:4;stroke-dasharray:none;stroke-opacity:1"
       d="m 58.243461,147.52863 c 0,0 2.07134,-3.4411 7.38332,-2.52236"
       id="path1747-2-0"
       inkscape:connector-curvature="0" />
    <path
       style="fill:none;stroke:#000000;stroke-width:0.065;stroke-linecap:round;stroke-linejoin:miter;stroke-miterlimit:4;stroke-dasharray:none;stroke-opacity:1"
       d="m 57.926081,147.06091 c 0,0 2.07134,-3.4411 7.38332,-2.52236"
       id="path1747-2-2"
       inkscape:connector-curvature="0" />
    <path
       style="fill:none;stroke:#000000;stroke-width:0.065;stroke-linecap:round;stroke-linejoin:miter;stroke-miterlimit:4;stroke-dasharray:none;stroke-opacity:1"
       d="m 55.973461,144.46447 c 0,0 2.07134,-3.4411 7.38332,-2.52236"
       id="path1747-2-3"
       inkscape:connector-curvature="0" />
    <path
       style="fill:none;stroke:#000000;stroke-width:0.065;stroke-linecap:round;stroke-linejoin:miter;stroke-miterlimit:4;stroke-dasharray:none;stroke-opacity:1"
       d="m 56.188831,144.87264 c 0,0 2.07134,-3.4411 7.38332,-2.52236"
       id="path1747-2-7"
       inkscape:connector-curvature="0" />
    <path
       style="fill:none;stroke:#000000;stroke-width:0.065;stroke-linecap:round;stroke-linejoin:miter;stroke-miterlimit:4;stroke-dasharray:none;stroke-opacity:1"
       d="m 56.556321,145.30696 c 0,0 2.07134,-3.4411 7.38332,-2.52236"
       id="path1747-2-7-5"
       inkscape:connector-curvature="0" />
    <path
       style="fill:none;stroke:#000000;stroke-width:0.065;stroke-linecap:round;stroke-linejoin:miter;stroke-miterlimit:4;stroke-dasharray:none;stroke-opacity:1"
       d="m 56.813761,145.5881 c 0,0 2.008,-2.6104 5.19718,-2.58678"
       id="path1818"
       inkscape:connector-curvature="0" />
    <path
       style="opacity:0.38999999;fill:#414141;fill-opacity:1;stroke:none;stroke-width:0.26458332px;stroke-linecap:butt;stroke-linejoin:miter;stroke-opacity:1"
       d="m 51.735481,139.22787 3.35376,11.18829 c 0,0 1.95933,-0.34731 4.26622,-0.10082"
       id="path1837"
       inkscape:connector-curvature="0"
       sodipodi:nodetypes="ccc" />
    <path
       style="fill:#e8e8e8;fill-opacity:1;stroke:none;stroke-width:0.26458332px;stroke-linecap:butt;stroke-linejoin:miter;stroke-opacity:1"
       d="m 59.233031,141.13495 c -2.11992,0.32981 -3.70675,2.1971 -3.70675,2.1971 l -0.56696,-0.81501 c 1.54567,-2.07517 3.76205,-2.13792 3.76205,-2.13792 z"
       id="path1841"
       inkscape:connector-curvature="0"
       sodipodi:nodetypes="ccccc" />
    <path
       style="opacity:0.38999999;fill:#414141;fill-opacity:1;stroke:none;stroke-width:0.26458332px;stroke-linecap:butt;stroke-linejoin:miter;stroke-opacity:1"
       d="m 56.236511,136.65973 3.11895,13.65561 -7.61998,-11.08747 c 0,0 1.80061,-2.431 4.50103,-2.56814 z"
       id="path1839"
       inkscape:connector-curvature="0"
       sodipodi:nodetypes="cccc" />
    <g
       id="g4623"
       transform="matrix(0.53115387,0,0,0.53115387,73.129515,58.600505)">
      <path
         sodipodi:nodetypes="ccccccccccccc"
         inkscape:connector-curvature="0"
         id="path1460-3"
         d="m 88.252686,243.38099 -10.93767,4.26568 c 0,0 -0.8658,0.17225 -1.17536,-0.21483 -0.30929,-0.38706 -101.161632,42.61476 -101.161632,42.61476 0,0 -2.55224,1.6241 -4.09906,-0.85099 -1.54681,-2.475 -57.35842,-99.34769 -57.35842,-99.34769 0,0 -0.70745,-1.26482 0.93324,-2.03043 1.64067,-0.7658 181.345852,-63.98515 181.345852,-63.98515 0,0 3.06254,-0.87506 4.265694,1.09379 0,0 62.34449,85.31386 62.89136,86.40765 0.54726,1.09369 -2.29693,1.75004 -2.29693,1.75004 0,0 -71.477374,27.45344 -71.203934,28.71121 0.27317,1.25788 -1.20314,1.58596 -1.20314,1.58596 z"
         style="fill:#141414;fill-opacity:1;stroke:none;stroke-width:2.45002842px;stroke-linecap:butt;stroke-linejoin:miter;stroke-opacity:1" />
      <path
         inkscape:connector-curvature="0"
         id="path1439-6"
         d="m 10.383904,139.42258 70.560642,102.66961 c 0,0 -76.903152,-11.49586 -107.426612,46.37975 l -56.42203,-97.72581 c 0,0 23.52028,-62.8195 93.288,-51.32355 z"
         style="fill:#e8e8e8;fill-opacity:1;stroke:none;stroke-width:2.2198832px;stroke-linecap:butt;stroke-linejoin:miter;stroke-opacity:1" />
      <path
         sodipodi:nodetypes="ccccc"
         inkscape:connector-curvature="0"
         id="path1458-7"
         d="M 160.65976,213.08382 97.802756,127.88385 c 0,0 -48.9818,-34.664989 -87.418852,11.53873 L 80.944546,242.09219 C 108.6544,200.73253 160.65976,213.08382 160.65976,213.08382 Z"
         style="fill:#e8e8e8;fill-opacity:1;stroke:none;stroke-width:2.2198832px;stroke-linecap:butt;stroke-linejoin:miter;stroke-opacity:1" />
      <path
         sodipodi:nodetypes="cc"
         inkscape:connector-curvature="0"
         id="path1462-5"
         d="m 80.944546,242.09219 c 0,0 -76.373012,-9.30209 -107.426612,46.37975"
         style="fill:none;stroke:#e8e8e8;stroke-width:0.60189676;stroke-linecap:butt;stroke-linejoin:miter;stroke-miterlimit:4;stroke-dasharray:none;stroke-opacity:1" />
      <path
         inkscape:connector-curvature="0"
         id="path1464-3"
         d="m -26.482066,288.47194 c 0,0 24.1404,-49.32192 107.426612,-46.37975"
         style="fill:none;stroke:#e8e8e8;stroke-width:0.60189676;stroke-linecap:butt;stroke-linejoin:miter;stroke-miterlimit:4;stroke-dasharray:none;stroke-opacity:1" />
      <path
         sodipodi:nodetypes="cc"
         inkscape:connector-curvature="0"
         id="path1464-6-5"
         d="m -26.482066,288.47194 c 0,0 26.53798995,-46.84701 107.426612,-46.37975"
         style="fill:none;stroke:#e8e8e8;stroke-width:0.60189676;stroke-linecap:butt;stroke-linejoin:miter;stroke-miterlimit:4;stroke-dasharray:none;stroke-opacity:1" />
      <path
         sodipodi:nodetypes="cc"
         inkscape:connector-curvature="0"
         id="path1464-6-7-6"
         d="m -26.482066,288.47194 c 0,0 29.24494,-43.98541 107.426612,-46.37975"
         style="fill:none;stroke:#e8e8e8;stroke-width:0.60189676;stroke-linecap:butt;stroke-linejoin:miter;stroke-miterlimit:4;stroke-dasharray:none;stroke-opacity:1" />
      <path
         sodipodi:nodetypes="cc"
         inkscape:connector-curvature="0"
         id="path1464-6-7-5-2"
         d="m -26.482066,288.47194 c 0,0 31.79717,-41.43318 107.426612,-46.37975"
         style="fill:none;stroke:#e8e8e8;stroke-width:0.60189676;stroke-linecap:butt;stroke-linejoin:miter;stroke-miterlimit:4;stroke-dasharray:none;stroke-opacity:1" />
      <path
         sodipodi:nodetypes="cc"
         inkscape:connector-curvature="0"
         id="path1464-6-7-5-3-9"
         d="m -26.482066,288.47194 c 0,0 33.73065,-38.2622 107.426612,-46.37975"
         style="fill:none;stroke:#e8e8e8;stroke-width:0.60189676;stroke-linecap:butt;stroke-linejoin:miter;stroke-miterlimit:4;stroke-dasharray:none;stroke-opacity:1" />
      <path
         inkscape:connector-curvature="0"
         id="path1526-1"
         d="m 80.944546,242.09219 c 0,0 23.397864,-37.52475 79.715214,-29.00837"
         style="fill:none;stroke:#e8e8e8;stroke-width:0.60189676;stroke-linecap:butt;stroke-linejoin:miter;stroke-miterlimit:4;stroke-dasharray:none;stroke-opacity:1" />
      <path
         sodipodi:nodetypes="cc"
         inkscape:connector-curvature="0"
         id="path1526-5-2"
         d="m 80.944546,242.09219 c 0,0 24.944654,-34.43109 79.715214,-29.00837"
         style="fill:none;stroke:#e8e8e8;stroke-width:0.60189676;stroke-linecap:butt;stroke-linejoin:miter;stroke-miterlimit:4;stroke-dasharray:none;stroke-opacity:1" />
      <path
         sodipodi:nodetypes="cc"
         inkscape:connector-curvature="0"
         id="path1526-5-6-7"
         d="m 80.944546,242.09219 c 0,0 27.032864,-32.49761 79.715214,-29.00837"
         style="fill:none;stroke:#e8e8e8;stroke-width:0.60189676;stroke-linecap:butt;stroke-linejoin:miter;stroke-miterlimit:4;stroke-dasharray:none;stroke-opacity:1" />
      <path
         sodipodi:nodetypes="cc"
         inkscape:connector-curvature="0"
         id="path1526-5-6-2-0"
         d="m 80.944546,242.09219 c 0,0 29.507764,-29.94539 79.715214,-29.00837"
         style="fill:none;stroke:#e8e8e8;stroke-width:0.60189676;stroke-linecap:butt;stroke-linejoin:miter;stroke-miterlimit:4;stroke-dasharray:none;stroke-opacity:1" />
      <path
         sodipodi:nodetypes="cc"
         inkscape:connector-curvature="0"
         id="path1526-5-6-2-9-9"
         d="m 80.944546,242.09219 c 0,0 31.131964,-27.08378 79.715214,-29.00837"
         style="fill:none;stroke:#e8e8e8;stroke-width:0.60189676;stroke-linecap:butt;stroke-linejoin:miter;stroke-miterlimit:4;stroke-dasharray:none;stroke-opacity:1" />
      <path
         inkscape:connector-curvature="0"
         id="path1588-3"
         d="m -70.342866,192.30227 c 0,0 33.68784,-52.28187 81.37591,-40.90676"
         style="fill:none;stroke:#000000;stroke-width:0.60189676;stroke-linecap:round;stroke-linejoin:miter;stroke-miterlimit:4;stroke-dasharray:none;stroke-opacity:1" />
      <path
         inkscape:connector-curvature="0"
         id="path1588-1-6"
         d="m -67.737956,196.89798 c 0,0 33.68786,-52.28187 81.37591,-40.90676"
         style="fill:none;stroke:#000000;stroke-width:0.60189676;stroke-linecap:round;stroke-linejoin:miter;stroke-miterlimit:4;stroke-dasharray:none;stroke-opacity:1" />
      <path
         sodipodi:nodetypes="cc"
         inkscape:connector-curvature="0"
         id="path1588-2-0"
         d="m -25.499566,271.53272 c 0,0 16.59419,-41.58051 81.375952,-40.90676 0,0 4.87249,-0.44077 6.26463,-0.9047"
         style="fill:none;stroke:#000000;stroke-width:0.60189676;stroke-linecap:round;stroke-linejoin:miter;stroke-miterlimit:4;stroke-dasharray:none;stroke-opacity:1" />
      <path
         sodipodi:nodetypes="cc"
         inkscape:connector-curvature="0"
         id="path1588-2-7-6"
         d="m -28.046366,267.81013 c 0,0 16.59417,-41.58052 81.375982,-40.90676 0,0 5.5631,-0.27595 6.80051,-0.73987"
         style="fill:none;stroke:#000000;stroke-width:0.60189676;stroke-linecap:round;stroke-linejoin:miter;stroke-miterlimit:4;stroke-dasharray:none;stroke-opacity:1" />
      <path
         sodipodi:nodetypes="cc"
         inkscape:connector-curvature="0"
         id="path1588-2-7-0-2"
         d="m -30.830636,263.94298 c 0,0 16.59415,-41.58051 81.375972,-40.90675 0,0 6.02712,-0.27595 7.10989,-0.73987"
         style="fill:none;stroke:#000000;stroke-width:0.60189676;stroke-linecap:round;stroke-linejoin:miter;stroke-miterlimit:4;stroke-dasharray:none;stroke-opacity:1" />
      <path
         sodipodi:nodetypes="cc"
         inkscape:connector-curvature="0"
         id="path1588-2-7-9-6"
         d="m -33.460236,259.61201 c 0,0 16.59416,-41.58051 81.376022,-40.90675 0,0 5.40837,-0.12131 7.10989,-0.27595"
         style="fill:none;stroke:#000000;stroke-width:0.60189676;stroke-linecap:round;stroke-linejoin:miter;stroke-miterlimit:4;stroke-dasharray:none;stroke-opacity:1" />
      <path
         sodipodi:nodetypes="cc"
         inkscape:connector-curvature="0"
         id="path1588-2-7-3-1"
         d="m -35.935126,255.89961 c 0,0 16.59417,-41.58051 81.375912,-40.90676 0,0 7.72873,0.18798 8.50211,0.037"
         style="fill:none;stroke:#000000;stroke-width:0.60189676;stroke-linecap:round;stroke-linejoin:miter;stroke-miterlimit:4;stroke-dasharray:none;stroke-opacity:1" />
      <path
         inkscape:connector-curvature="0"
         id="path1588-1-0-8"
         d="m -64.860146,201.63852 c 0,0 33.68792,-52.28187 81.37599,-40.90676"
         style="fill:none;stroke:#000000;stroke-width:0.60189676;stroke-linecap:round;stroke-linejoin:miter;stroke-miterlimit:4;stroke-dasharray:none;stroke-opacity:1" />
      <path
         sodipodi:nodetypes="cc"
         inkscape:connector-curvature="0"
         id="path1588-1-0-6-79"
         d="m -54.812446,219.25085 c 0,0 29.53162,-50.96936 81.375992,-40.90676 l 3.55564,0.66857"
         style="fill:none;stroke:#000000;stroke-width:0.60189676;stroke-linecap:round;stroke-linejoin:miter;stroke-miterlimit:4;stroke-dasharray:none;stroke-opacity:1" />
      <path
         sodipodi:nodetypes="cc"
         inkscape:connector-curvature="0"
         id="path1588-1-0-6-2-2"
         d="m -52.734336,222.92733 c 0,0 29.53156,-50.96936 81.375902,-40.90676 l 4.10263,0.82043"
         style="fill:none;stroke:#000000;stroke-width:0.60189676;stroke-linecap:round;stroke-linejoin:miter;stroke-miterlimit:4;stroke-dasharray:none;stroke-opacity:1" />
      <path
         sodipodi:nodetypes="cc"
         inkscape:connector-curvature="0"
         id="path1588-1-0-6-6-0"
         d="m -50.546866,226.75549 c 0,0 29.53159,-50.96936 81.376012,-40.90676 l 4.70414,0.87506"
         style="fill:none;stroke:#000000;stroke-width:0.60189676;stroke-linecap:round;stroke-linejoin:miter;stroke-miterlimit:4;stroke-dasharray:none;stroke-opacity:1" />
      <path
         sodipodi:nodetypes="cc"
         inkscape:connector-curvature="0"
         id="path1588-1-0-6-1-2"
         d="m -57.000016,215.92727 c 0,0 29.53156,-50.96936 81.375892,-40.90676 l 3.39174,0.71117"
         style="fill:none;stroke:#000000;stroke-width:0.60189676;stroke-linecap:round;stroke-linejoin:miter;stroke-miterlimit:4;stroke-dasharray:none;stroke-opacity:1" />
      <path
         sodipodi:nodetypes="cc"
         inkscape:connector-curvature="0"
         id="path1588-1-0-6-8-3"
         d="m -48.031206,231.13053 c 0,0 29.5316,-50.96935 81.376002,-40.90675 l 5.25104,1.09416"
         style="fill:none;stroke:#000000;stroke-width:0.60189676;stroke-linecap:round;stroke-linejoin:miter;stroke-miterlimit:4;stroke-dasharray:none;stroke-opacity:1" />
      <path
         sodipodi:nodetypes="cc"
         inkscape:connector-curvature="0"
         id="path1588-1-0-6-7-7"
         d="m -45.624906,235.50568 c 0,0 29.5316,-50.96936 81.375892,-40.90676 l 4.86833,0.82043"
         style="fill:none;stroke:#000000;stroke-width:0.60189676;stroke-linecap:round;stroke-linejoin:miter;stroke-miterlimit:4;stroke-dasharray:none;stroke-opacity:1" />
      <path
         inkscape:connector-curvature="0"
         id="path1728-5"
         d="M 80.944546,242.09219 10.383904,139.42258"
         style="fill:none;stroke:#000000;stroke-width:0.60189676;stroke-linecap:round;stroke-linejoin:miter;stroke-miterlimit:4;stroke-dasharray:none;stroke-opacity:1" />
      <path
         sodipodi:nodetypes="ccccc"
         inkscape:connector-curvature="0"
         id="path1745-9"
         d="m 94.316846,132.2313 c -51.6333,-19.80897 -71.580532,15.44551 -71.580532,15.44551 l 23.178772,34.51322 c 0,0 21.82931,-30.89656 68.369184,-23.35693 z"
         style="fill:#414141;fill-opacity:1;stroke:none;stroke-width:2.45002842px;stroke-linecap:butt;stroke-linejoin:miter;stroke-opacity:1" />
      <path
         inkscape:connector-curvature="0"
         id="path1747-22"
         d="m 76.216976,224.92581 c 0,0 19.18051,-31.86441 68.369184,-23.35692"
         style="fill:none;stroke:#000000;stroke-width:0.60189676;stroke-linecap:round;stroke-linejoin:miter;stroke-miterlimit:4;stroke-dasharray:none;stroke-opacity:1" />
      <path
         inkscape:connector-curvature="0"
         id="path1747-2-8"
         d="m 73.277126,220.15425 c 0,0 19.1805,-31.86441 68.369184,-23.35692"
         style="fill:none;stroke:#000000;stroke-width:0.60189676;stroke-linecap:round;stroke-linejoin:miter;stroke-miterlimit:4;stroke-dasharray:none;stroke-opacity:1" />
      <path
         inkscape:connector-curvature="0"
         id="path1747-2-0-9"
         d="m 70.647486,216.28721 c 0,0 19.1805,-31.86442 68.369194,-23.35693"
         style="fill:none;stroke:#000000;stroke-width:0.60189676;stroke-linecap:round;stroke-linejoin:miter;stroke-miterlimit:4;stroke-dasharray:none;stroke-opacity:1" />
      <path
         inkscape:connector-curvature="0"
         id="path1747-2-2-7"
         d="m 67.708566,211.95614 c 0,0 19.1805,-31.86441 68.369174,-23.35693"
         style="fill:none;stroke:#000000;stroke-width:0.60189676;stroke-linecap:round;stroke-linejoin:miter;stroke-miterlimit:4;stroke-dasharray:none;stroke-opacity:1" />
      <path
         inkscape:connector-curvature="0"
         id="path1747-2-3-3"
         d="m 49.627396,187.91324 c 0,0 19.1805,-31.86442 68.369184,-23.35693"
         style="fill:none;stroke:#000000;stroke-width:0.60189676;stroke-linecap:round;stroke-linejoin:miter;stroke-miterlimit:4;stroke-dasharray:none;stroke-opacity:1" />
      <path
         inkscape:connector-curvature="0"
         id="path1747-2-7-6"
         d="m 51.621716,191.69287 c 0,0 19.1805,-31.86442 68.369184,-23.35693"
         style="fill:none;stroke:#000000;stroke-width:0.60189676;stroke-linecap:round;stroke-linejoin:miter;stroke-miterlimit:4;stroke-dasharray:none;stroke-opacity:1" />
      <path
         inkscape:connector-curvature="0"
         id="path1747-2-7-5-1"
         d="m 55.024656,195.71465 c 0,0 19.1805,-31.86441 68.369184,-23.35693"
         style="fill:none;stroke:#000000;stroke-width:0.60189676;stroke-linecap:round;stroke-linejoin:miter;stroke-miterlimit:4;stroke-dasharray:none;stroke-opacity:1" />
      <path
         inkscape:connector-curvature="0"
         id="path1818-2"
         d="m 57.408536,198.31799 c 0,0 18.59399,-24.17217 48.125634,-23.95345"
         style="fill:none;stroke:#000000;stroke-width:0.60189676;stroke-linecap:round;stroke-linejoin:miter;stroke-miterlimit:4;stroke-dasharray:none;stroke-opacity:1" />
      <path
         sodipodi:nodetypes="ccc"
         inkscape:connector-curvature="0"
         id="path1837-9"
         d="m 10.383904,139.42258 31.055652,103.60301 c 0,0 18.1433,-3.21607 39.50499,-0.93359"
         style="opacity:0.38999999;fill:#414141;fill-opacity:1;stroke:none;stroke-width:2.45002842px;stroke-linecap:butt;stroke-linejoin:miter;stroke-opacity:1" />
      <path
         sodipodi:nodetypes="ccccc"
         inkscape:connector-curvature="0"
         id="path1841-3"
         d="m 79.810856,157.08204 c -19.63035,3.05403 -34.32432,20.34504 -34.32432,20.34504 l -5.25002,-7.54695 c 14.31282,-19.21597 34.83639,-19.79703 34.83639,-19.79703 z"
         style="fill:#e8e8e8;fill-opacity:1;stroke:none;stroke-width:2.45002842px;stroke-linecap:butt;stroke-linejoin:miter;stroke-opacity:1" />
      <path
         sodipodi:nodetypes="cccc"
         inkscape:connector-curvature="0"
         id="path1839-1"
         d="M 52.063226,115.64173 80.944546,242.092 10.383904,139.42258 c 0,0 16.673562,-22.51094 41.679322,-23.78085 z"
         style="opacity:0.38999999;fill:#414141;fill-opacity:1;stroke:none;stroke-width:2.45002842px;stroke-linecap:butt;stroke-linejoin:miter;stroke-opacity:1" />
    </g>
  </g>
</svg>
