<?xml version="1.0" encoding="UTF-8"?>
<svg width="103px" height="25px" viewBox="0 0 103 25" version="1.1" xmlns="http://www.w3.org/2000/svg" xmlns:xlink="http://www.w3.org/1999/xlink">
    <!-- Generator: sketchtool 63.1 (101010) - https://sketch.com -->
    <title>9B26FCF3-A9EC-4B01-BCBA-7884E1BFBC64</title>
    <desc>Created with sketchtool.</desc>
    <g id="Page-1" stroke="none" stroke-width="1" fill="none" fill-rule="evenodd">
        <g id="1920-_-footer-_-dark" transform="translate(-312.000000, -45.000000)" fill="#FFFFFF">
            <g id="logo-white" transform="translate(312.000000, 45.000000)">
                <path d="M69.6294443,-7.40148683e-15 C68.858847,0.00176273577 68.1330905,0.493566014 67.8358127,1.300899 L67.8358127,1.300899 L60.2676837,21.9178565 C59.882385,22.9702098 60.3723122,24.1565309 61.3637919,24.5672484 L61.3637919,24.5672484 C61.5946389,24.6624361 61.8304683,24.7065045 62.0629761,24.7065045 L62.0629761,24.7065045 C62.8335734,24.7065045 63.5626514,24.2111757 63.8582685,23.4038428 L63.8582685,23.4038428 L65.1320791,19.9347788 L74.1666681,19.9347788 L75.4421394,23.4038428 C75.7360957,24.2111757 76.4651738,24.7065045 77.2374318,24.7065045 L77.2374318,24.7065045 C77.4682789,24.7065045 77.705769,24.6624361 77.936616,24.5672484 L77.936616,24.5672484 C78.9280957,24.1565309 79.4196837,22.9702098 79.0310635,21.9178565 L79.0310635,21.9178565 L71.4629344,1.300899 C71.1706389,0.500616958 70.454847,0.0105764146 69.6908928,-7.40148683e-15 L69.6908928,-7.40148683e-15 L69.6294443,-7.40148683e-15 Z M69.6493736,7.62912039 L72.6636712,15.8434691 L66.635076,15.8434691 L69.6493736,7.62912039 Z M0.00830385016,8.63564252 C0.00332154006,8.70438921 0,8.77137317 0,8.8418826 L0,8.8418826 L0,22.5665433 C0,23.6982196 0.861939646,24.6130795 1.92649324,24.6130795 L1.92649324,24.6130795 C2.9927076,24.6130795 3.85464724,23.6982196 3.85464724,22.5665433 L3.85464724,22.5665433 L3.85464724,16.217169 C5.18990635,17.1267407 6.78424558,17.6555614 8.49816025,17.6555614 L8.49816025,17.6555614 C13.1782102,17.6555614 16.9880166,13.7035078 16.9880166,8.8418826 L16.9880166,8.8418826 C16.9880166,3.98025736 13.1782102,0.0264410365 8.49816025,0.0264410365 L8.49816025,0.0264410365 C3.87955879,0.0264410365 0.116253902,3.86920501 0.00830385016,8.63564252 L0.00830385016,8.63564252 Z M3.85962955,8.8418826 C3.85962955,6.23655914 5.93891363,4.11951348 8.49816025,4.11951348 L8.49816025,4.11951348 C11.0540853,4.11951348 13.1333694,6.23655914 13.1333694,8.8418826 L13.1333694,8.8418826 C13.1333694,11.4472061 11.0540853,13.5642517 8.49816025,13.5642517 L8.49816025,13.5642517 C5.93891363,13.5642517 3.85962955,11.4472061 3.85962955,8.8418826 L3.85962955,8.8418826 Z M20.1600874,2.04301075 C20.1600874,3.17116164 21.036974,4.07544509 22.0998668,4.07544509 L22.0998668,4.07544509 C23.1644204,4.07544509 24.0147347,3.17116164 24.0147347,2.04301075 L24.0147347,2.04301075 C24.0147347,0.943063635 23.1644204,0.0405429226 22.0998668,0.0405429226 L22.0998668,0.0405429226 C21.036974,0.0405429226 20.1600874,0.943063635 20.1600874,2.04301075 L20.1600874,2.04301075 Z M93.4648158,2.09765556 L93.4648158,17.4334567 C93.4648158,21.3925613 96.4973819,24.6130795 100.227471,24.6130795 L100.227471,24.6130795 C101.290364,24.6130795 102.153965,23.6982196 102.153965,22.5665433 L102.153965,22.5665433 C102.153965,21.4366296 101.290364,20.5217698 100.227471,20.5217698 L100.227471,20.5217698 C98.6231675,20.5217698 97.3194631,19.1362595 97.3194631,17.4334567 L97.3194631,17.4334567 L97.3194631,10.6292967 L100.227471,10.6292967 C101.290364,10.6292967 102.153965,9.71443681 102.153965,8.58276044 L102.153965,8.58276044 C102.153965,7.45284682 101.290364,6.53798696 100.227471,6.53798696 L100.227471,6.53798696 L97.3194631,6.53798696 L97.3194631,2.09765556 C97.3194631,0.967741935 96.4558626,0.052882073 95.3913091,0.052882073 L95.3913091,0.052882073 C94.3284162,0.052882073 93.4648158,0.967741935 93.4648158,2.09765556 L93.4648158,2.09765556 Z M85.4383143,7.54274634 C85.1028387,6.94341618 84.4883538,6.53798696 83.7808658,6.53798696 L83.7808658,6.53798696 C82.7179729,6.53798696 81.8543725,7.45284682 81.8543725,8.58276044 L81.8543725,8.58276044 L81.8543725,22.6493919 C81.8543725,23.7775427 82.7179729,24.6941653 83.7808658,24.6941653 L83.7808658,24.6941653 C84.8454194,24.6941653 85.7106805,23.7775427 85.7106805,22.6493919 L85.7106805,22.6493919 L85.7106805,13.9608673 C85.7106805,12.1240966 87.2070343,10.6292967 89.0471675,10.6292967 L89.0471675,10.6292967 C90.1083996,10.6292967 90.9736608,9.71443681 90.9736608,8.58276044 L90.9736608,8.58276044 C90.9736608,7.45284682 90.1083996,6.53798696 89.0471675,6.53798696 L89.0471675,6.53798696 C87.7318377,6.53798696 86.4995463,6.904636 85.4383143,7.54274634 L85.4383143,7.54274634 Z M46.7739272,8.32716376 C45.8156629,9.3001939 45.265948,10.6099066 45.265948,11.9249075 L45.265948,11.9249075 C45.265948,16.2347964 49.6437378,17.2677596 51.0819646,17.6079676 L51.0819646,17.6079676 C53.8787014,18.2672307 53.8787014,18.9881897 53.8787014,19.2984312 L53.8787014,19.2984312 C53.8787014,19.4517892 53.7973236,19.7020977 53.5614943,19.940067 L53.5614943,19.940067 C53.1479625,20.3631236 52.4537607,20.5746519 51.5884995,20.5341089 L51.5884995,20.5341089 C50.8245453,20.4970915 49.8529948,20.2908514 48.4446618,19.0181562 L48.4446618,19.0181562 C47.6325453,18.2848581 46.4168616,18.385334 45.727642,19.2473118 L45.727642,19.2473118 C45.0367617,20.1057641 45.1330864,21.3960867 45.9435421,22.1293848 L45.9435421,22.1293848 C47.7222268,23.7405253 49.4643746,24.5319937 51.4224225,24.6201304 L51.4224225,24.6201304 C51.5436587,24.6254186 51.6632341,24.6289441 51.7828096,24.6289441 L51.7828096,24.6289441 C53.5531904,24.6289441 55.1192966,24.0208003 56.2253694,22.8944121 L56.2253694,22.8944121 C57.1836337,21.921382 57.7333486,20.6099066 57.7333486,19.2984312 L57.7333486,19.2984312 C57.7333486,14.9867795 53.3572196,13.9538163 51.9189927,13.6136083 L51.9189927,13.6136083 C49.1205952,12.9543451 49.1205952,12.2316235 49.1205952,11.9249075 L49.1205952,11.9249075 C49.1205952,11.7697867 49.2036337,11.5194782 49.4394631,11.2779834 L49.4394631,11.2779834 C49.8546556,10.8584523 50.5538398,10.6592632 51.4124579,10.6874669 L51.4124579,10.6874669 C52.1764121,10.7227217 53.1479625,10.9289617 54.5579563,12.2051824 L54.5579563,12.2051824 C55.3667513,12.9367178 56.582435,12.8344791 57.2733153,11.9742641 L57.2733153,11.9742641 C57.9625349,11.1158117 57.867871,9.82548916 57.059076,9.09219108 L57.059076,9.09219108 C55.2787305,7.48105059 53.5365827,6.69134497 51.5768741,6.60144544 L51.5768741,6.60144544 C51.4539771,6.59615724 51.3327409,6.59263176 51.2115047,6.59263176 L51.2115047,6.59263176 C49.4494277,6.59263176 47.8783392,7.20430108 46.7739272,8.32716376 L46.7739272,8.32716376 Z M29.6430843,9.24026088 C29.6331197,9.24907456 29.6281374,9.25788824 29.6214943,9.26493919 L29.6214943,9.26493919 C26.3414735,12.7727834 26.3414735,18.452318 29.6198335,21.9619249 L29.6198335,21.9619249 C29.6281374,21.9689759 29.6331197,21.9795523 29.6430843,21.9866032 L29.6430843,21.9866032 C31.298872,23.7440508 33.4744807,24.6201304 35.646768,24.6201304 L35.646768,24.6201304 C37.8223767,24.6201304 39.9946639,23.7440508 41.6504516,21.9866032 L41.6504516,21.9866032 C42.4027804,21.1898466 42.4027804,19.8924731 41.6504516,19.0957166 L41.6504516,19.0957166 C40.8981228,18.2954345 39.6774568,18.2971973 38.9267888,19.0939538 L38.9267888,19.0939538 C37.1182102,21.0135731 34.1753257,21.0135731 32.3684079,19.0939538 L32.3684079,19.0939538 C32.3667471,19.0904283 32.3617648,19.0886656 32.3601041,19.0851401 L32.3601041,19.0851401 C30.5631509,17.1672836 30.5631509,14.0578177 32.3601041,12.141724 L32.3601041,12.141724 C32.3617648,12.1381985 32.3667471,12.1364357 32.3684079,12.134673 L32.3684079,12.134673 C34.1753257,10.2150538 37.1182102,10.2150538 38.9267888,12.134673 L38.9267888,12.134673 C39.3021228,12.5312886 39.7953715,12.7340032 40.2886202,12.7340032 L40.2886202,12.7340032 C40.7818689,12.7340032 41.2751176,12.5312886 41.6504516,12.1329103 L41.6504516,12.1329103 C42.4027804,11.334391 42.4027804,10.0405429 41.6504516,9.24026088 L41.6504516,9.24026088 C39.9963247,7.48457606 37.8207159,6.60497091 35.646768,6.60497091 L35.646768,6.60497091 C33.4711592,6.60497091 31.2972112,7.48457606 29.6430843,9.24026088 L29.6430843,9.24026088 Z M20.1584266,8.68852459 L20.1584266,22.5665433 C20.1584266,23.6982196 21.0236878,24.6130795 22.0865806,24.6130795 L22.0865806,24.6130795 C23.1511342,24.6130795 24.0147347,23.6982196 24.0147347,22.5665433 L24.0147347,22.5665433 L24.0147347,8.68852459 C24.0147347,7.55861096 23.1511342,6.6437511 22.0865806,6.6437511 L22.0865806,6.6437511 C21.0236878,6.6437511 20.1584266,7.55861096 20.1584266,8.68852459 L20.1584266,8.68852459 Z" id="Fill-1"></path>
            </g>
        </g>
    </g>
</svg>