<?xml version="1.0" encoding="UTF-8"?>
<svg width="100px" height="24px" viewBox="0 0 100 24" version="1.1" xmlns="http://www.w3.org/2000/svg" xmlns:xlink="http://www.w3.org/1999/xlink">
    <!-- Generator: sketchtool 61 (101010) - https://sketch.com -->
    <title>1DAFE5F6-5DD7-455E-8106-A0A9B916B8F3</title>
    <desc>Created with sketchtool.</desc>
    <defs>
        <linearGradient x1="-44.9632732%" y1="42.063935%" x2="118.964729%" y2="54.778769%" id="linearGradient-1">
            <stop stop-color="#3023AE" offset="0%"></stop>
            <stop stop-color="#C86DD7" offset="100%"></stop>
        </linearGradient>
    </defs>
    <g id="Asset-Artboard-Page" stroke="none" stroke-width="1" fill="none" fill-rule="evenodd">
        <g id="Logo/PicsArt-Copy-3-Logo/PicsArt" fill="url(#linearGradient-1)">
            <g id="Page-1">
                <path d="M67.6225785,0.79950819 C66.8741914,0.801147534 66.1693527,1.25852459 65.8806431,2.00934426 L65.8806431,2.00934426 L58.5306432,21.1831148 C58.1564496,22.1618033 58.6322561,23.265082 59.5951593,23.6470492 L59.5951593,23.6470492 C59.8193528,23.7355738 60.0483851,23.7765574 60.2741915,23.7765574 L60.2741915,23.7765574 C61.0225786,23.7765574 61.7306431,23.3159017 62.0177399,22.565082 L62.0177399,22.565082 L63.2548366,19.3388525 L72.02903,19.3388525 L73.2677397,22.565082 C73.5532236,23.3159017 74.2612881,23.7765574 75.0112881,23.7765574 L75.0112881,23.7765574 C75.2354816,23.7765574 75.4661268,23.7355738 75.6903203,23.6470492 L75.6903203,23.6470492 C76.6532235,23.265082 77.1306429,22.1618033 76.7532235,21.1831148 L76.7532235,21.1831148 L69.4032236,2.00934426 C69.1193527,1.26508196 68.4241914,0.809344256 67.6822559,0.79950819 L67.6822559,0.79950819 L67.6225785,0.79950819 Z M67.6419334,7.89459028 L70.5693527,15.5339343 L64.7145142,15.5339343 L67.6419334,7.89459028 Z M0.00806451615,8.8306555 C0.00322580646,8.89458993 0,8.95688501 0,9.02245878 L0,9.02245878 L0,21.7863928 C0,22.8388518 0.837096777,23.6896715 1.87096775,23.6896715 L1.87096775,23.6896715 C2.90645162,23.6896715 3.7435484,22.8388518 3.7435484,21.7863928 L3.7435484,21.7863928 L3.7435484,15.881475 C5.0403226,16.7273766 6.5887097,17.2191799 8.25322583,17.2191799 L8.25322583,17.2191799 C12.7983871,17.2191799 16.4983871,13.5437701 16.4983871,9.02245878 L16.4983871,9.02245878 C16.4983871,4.50114743 12.7983871,0.824098355 8.25322583,0.824098355 L8.25322583,0.824098355 C3.76774195,0.824098355 0.112903226,4.39786874 0.00806451615,8.8306555 L0.00806451615,8.8306555 Z M3.74838715,9.02245893 C3.74838715,6.59950807 5.76774194,4.63065557 8.25322576,4.63065557 L8.25322576,4.63065557 C10.7354838,4.63065557 12.7548386,6.59950807 12.7548386,9.02245893 L12.7548386,9.02245893 C12.7548386,11.4454098 10.7354838,13.4142623 8.25322576,13.4142623 L8.25322576,13.4142623 C5.76774194,13.4142623 3.74838715,11.4454098 3.74838715,9.02245893 L3.74838715,9.02245893 Z M19.5790329,2.69950816 C19.5790329,3.74868847 20.4306458,4.58967206 21.4629038,4.58967206 L21.4629038,4.58967206 C22.4967747,4.58967206 23.3225811,3.74868847 23.3225811,2.69950816 L23.3225811,2.69950816 C23.3225811,1.67655736 22.4967747,0.837213108 21.4629038,0.837213108 L21.4629038,0.837213108 C20.4306458,0.837213108 19.5790329,1.67655736 19.5790329,2.69950816 L19.5790329,2.69950816 Z M90.7709656,2.75032786 L90.7709656,17.0126229 C90.7709656,20.6945901 93.716127,23.6896721 97.3387078,23.6896721 L97.3387078,23.6896721 C98.3709659,23.6896721 99.2096756,22.8388524 99.2096756,21.7863934 L99.2096756,21.7863934 C99.2096756,20.7355737 98.3709659,19.8847541 97.3387078,19.8847541 L97.3387078,19.8847541 C95.7806432,19.8847541 94.5145141,18.5962295 94.5145141,17.0126229 L94.5145141,17.0126229 L94.5145141,10.6847541 L97.3387078,10.6847541 C98.3709659,10.6847541 99.2096756,9.83393441 99.2096756,8.7814754 L99.2096756,8.7814754 C99.2096756,7.73065572 98.3709659,6.87983605 97.3387078,6.87983605 L97.3387078,6.87983605 L94.5145141,6.87983605 L94.5145141,2.75032786 C94.5145141,1.69950819 93.6758044,0.848688519 92.6419334,0.848688519 L92.6419334,0.848688519 C91.6096753,0.848688519 90.7709656,1.69950819 90.7709656,2.75032786 L90.7709656,2.75032786 Z M82.975805,7.81426243 C82.6499986,7.25688537 82.0532244,6.87983618 81.3661276,6.87983618 L81.3661276,6.87983618 C80.3338696,6.87983618 79.4951599,7.73065587 79.4951599,8.78147556 L79.4951599,8.78147556 L79.4951599,21.8634431 C79.4951599,22.9126234 80.3338696,23.7650825 81.3661276,23.7650825 L81.3661276,23.7650825 C82.3999986,23.7650825 83.2403211,22.9126234 83.2403211,21.8634431 L83.2403211,21.8634431 L83.2403211,13.783115 C83.2403211,12.0749183 84.6935469,10.6847543 86.4806436,10.6847543 L86.4806436,10.6847543 C87.5112888,10.6847543 88.3516113,9.8339346 88.3516113,8.78147556 L88.3516113,8.78147556 C88.3516113,7.73065587 87.5112888,6.87983618 86.4806436,6.87983618 L86.4806436,6.87983618 C85.2032243,6.87983618 84.0064501,7.22081979 82.975805,7.81426243 L82.975805,7.81426243 Z M45.4258076,8.5437703 C44.4951625,9.44868831 43.9612915,10.6667211 43.9612915,11.8896719 L43.9612915,11.8896719 C43.9612915,15.8978685 48.2129044,16.8585242 49.6096785,17.1749177 L49.6096785,17.1749177 C52.3258075,17.7880324 52.3258075,18.4585242 52.3258075,18.7470488 L52.3258075,18.7470488 C52.3258075,18.8896717 52.2467753,19.1224586 52.017743,19.3437701 L52.017743,19.3437701 C51.6161301,19.7372127 50.9419366,19.933934 50.101614,19.8962291 L50.101614,19.8962291 C49.3596785,19.8618028 48.4161302,19.6699996 47.0483882,18.486393 L47.0483882,18.486393 C46.2596786,17.8044258 45.0790334,17.8978685 44.4096786,18.6995078 L44.4096786,18.6995078 C43.7387109,19.4978684 43.8322592,20.6978684 44.619356,21.3798356 L44.619356,21.3798356 C46.3467754,22.8781962 48.0387108,23.6142618 49.9403237,23.696229 L49.9403237,23.696229 C50.0580656,23.701147 50.1741947,23.7044257 50.2903237,23.7044257 L50.2903237,23.7044257 C52.0096785,23.7044257 53.5306462,23.138852 54.6048398,22.091311 L54.6048398,22.091311 C55.5354849,21.186393 56.0693559,19.9667209 56.0693559,18.7470488 L56.0693559,18.7470488 C56.0693559,14.7372128 51.8193559,13.7765571 50.4225818,13.4601636 L50.4225818,13.4601636 C47.7048399,12.8470489 47.7048399,12.1749178 47.7048399,11.8896719 L47.7048399,11.8896719 C47.7048399,11.7454096 47.785485,11.5126227 48.0145173,11.2880325 L48.0145173,11.2880325 C48.4177431,10.8978686 49.0967753,10.7126227 49.9306463,10.7388522 L49.9306463,10.7388522 C50.6725818,10.7716391 51.6161301,10.9634424 52.985485,12.1503276 L52.985485,12.1503276 C53.7709688,12.8306555 54.951614,12.7355735 55.6225817,11.9355735 L55.6225817,11.9355735 C56.2919365,11.1372129 56.2000011,9.93721289 55.4145172,9.25524569 L55.4145172,9.25524569 C53.685485,7.75688507 51.9935495,7.02245885 50.0903237,6.9388523 L50.0903237,6.9388523 C49.9709689,6.93393426 49.8532269,6.93065557 49.735485,6.93065557 L49.735485,6.93065557 C48.0241947,6.93065557 46.4983883,7.49950802 45.4258076,8.5437703 L45.4258076,8.5437703 Z M28.7887095,9.39295102 C28.7790321,9.40114774 28.7741934,9.40934447 28.7677418,9.41590184 L28.7677418,9.41590184 C25.5822578,12.678197 25.5822578,17.9601642 28.7661289,21.2240987 L28.7661289,21.2240987 C28.7741934,21.230656 28.7790321,21.2404921 28.7887095,21.2470495 L28.7887095,21.2470495 C30.3967741,22.8814757 32.5096775,23.6962298 34.619355,23.6962298 L34.619355,23.6962298 C36.7322583,23.6962298 38.8419358,22.8814757 40.4500004,21.2470495 L40.4500004,21.2470495 C41.1806456,20.5060659 41.1806456,19.2995085 40.4500004,18.5585249 L40.4500004,18.5585249 C39.7193552,17.8142626 38.5338713,17.8159019 37.804839,18.5568855 L37.804839,18.5568855 C36.0483873,20.3421314 33.1903226,20.3421314 31.4354839,18.5568855 L31.4354839,18.5568855 C31.433871,18.5536068 31.4290322,18.5519675 31.4274193,18.5486888 L31.4274193,18.5486888 C29.682258,16.7650822 29.682258,13.8732789 31.4274193,12.0913117 L31.4274193,12.0913117 C31.4290322,12.088033 31.433871,12.0863937 31.4354839,12.0847543 L31.4354839,12.0847543 C33.1903226,10.2995084 36.0483873,10.2995084 37.804839,12.0847543 L37.804839,12.0847543 C38.1693551,12.4536068 38.6483874,12.6421314 39.1274197,12.6421314 L39.1274197,12.6421314 C39.606452,12.6421314 40.0854843,12.4536068 40.4500004,12.083115 L40.4500004,12.083115 C41.1806456,11.340492 41.1806456,10.1372133 40.4500004,9.39295102 L40.4500004,9.39295102 C38.8435487,7.76016412 36.7306454,6.94213133 34.619355,6.94213133 L34.619355,6.94213133 C32.5064516,6.94213133 30.3951612,7.76016412 28.7887095,9.39295102 L28.7887095,9.39295102 Z M19.57742,8.87983605 L19.57742,21.786394 C19.57742,22.838853 20.4177427,23.6896728 21.4500008,23.6896728 L21.4500008,23.6896728 C22.4838718,23.6896728 23.3225815,22.838853 23.3225815,21.786394 L23.3225815,21.786394 L23.3225815,8.87983605 C23.3225815,7.82901633 22.4838718,6.97819662 21.4500008,6.97819662 L21.4500008,6.97819662 C20.4177427,6.97819662 19.57742,7.82901633 19.57742,8.87983605 L19.57742,8.87983605 Z" id="Fill-1"></path>
            </g>
        </g>
    </g>
</svg>
